<?xml version="1.0" encoding="utf-8"?>
<!-- Generator: Adobe Illustrator 27.0.0, SVG Export Plug-In . SVG Version: 6.00 Build 0)  -->
<svg version="1.1" id="Layer_1"
    xmlns="http://www.w3.org/2000/svg"
    xmlns:xlink="http://www.w3.org/1999/xlink" x="0px" y="0px" viewBox="0 0 200 200" style="enable-background:new 0 0 200 200;" xml:space="preserve">
    <style type="text/css">
 .st0{fill:#3375BB;}
 .st1{fill-rule:evenodd;clip-rule:evenodd;fill:#FFFFFF;}
    </style>
    <g>
        <circle class="st0" cx="100" cy="100" r="93.5"/>
        <path class="st1" d="M145.9,53.7c3.4,0,6.1,2.7,6.1,6.1c0,0,0,0,0,0.1c-0.3,17.4-1,30.7-2.2,41.3c-1.2,10.5-3.1,18.4-5.8,24.7
  c-1.9,4.2-4.2,7.7-6.9,10.7c-3.7,3.9-7.8,6.8-12.4,9.5c-1.9,1.2-4,2.3-6.1,3.5c-4.5,2.6-9.5,5.4-15.2,9.2c-2,1.4-4.7,1.4-6.8,0
  c-5.7-3.8-10.8-6.7-15.4-9.3c-1-0.6-2-1.1-3-1.7c-5.3-3.1-10.2-6.1-14.4-10.3c-2.8-2.8-5.2-6.2-7.2-10.3c-2.6-5.4-4.4-12-5.7-20.5
  c-1.8-11.4-2.6-26.3-3-46.9c0-1.6,0.6-3.2,1.7-4.3c1.2-1.2,2.7-1.8,4.4-1.8h2.5c7.7,0,24.8-0.7,39.6-12.2c2.2-1.7,5.3-1.7,7.5,0
  c14.8,11.5,31.9,12.3,39.7,12.2 M132.3,122c1.9-3.9,3.5-9.3,4.7-17.1c1.4-9.3,2.3-21.9,2.7-39.1c-9.1-0.3-24.8-2-39.7-12.1
  c-14.9,10-30.6,11.8-39.7,12.1c0.3,14.2,1,25.2,2,33.9c1.2,9.9,2.8,16.6,4.9,21.3c1.4,3.1,2.9,5.4,4.7,7.4c2.4,2.7,5.5,4.9,9.7,7.4
  c1.7,1,3.6,2.1,5.7,3.3c3.7,2.1,7.9,4.5,12.7,7.5c4.6-3,8.8-5.3,12.5-7.4c1.1-0.6,2.2-1.2,3.2-1.8c5.1-3,8.9-5.4,11.8-8.3
  C129.3,127.1,130.9,124.9,132.3,122"/>
    </g>
</svg>