<?xml version="1.0" encoding="utf-8"?>
<!-- Generator: Adobe Illustrator 27.0.0, SVG Export Plug-In . SVG Version: 6.00 Build 0)  -->
<svg version="1.1" id="Layer_1"
    xmlns="http://www.w3.org/2000/svg"
    xmlns:xlink="http://www.w3.org/1999/xlink" x="0px" y="0px" viewBox="0 0 200 200" style="enable-background:new 0 0 200 200;" xml:space="preserve">
    <style type="text/css">
 .st0{fill:#F05A22;}
 .st1{fill:#FFFFFF;}
    </style>
    <g>
        <path class="st0" d="M177.4,67.9l-5.6-15.2l3.9-8.7c0.5-1.1,0.2-2.4-0.6-3.3L164.4,30c-4.7-4.7-11.5-6.3-17.8-4.1l-3,1L127.5,9.4
  l-27.4-0.2h-0.2L72.4,9.5L56.2,27.1l-2.9-1c-6.3-2.2-13.2-0.6-17.9,4.2L24.7,41.1c-0.7,0.7-0.9,1.8-0.5,2.7l4,9.1L22.6,68l3.6,13.7
  l16.4,62.4c1.9,7.2,6.2,13.5,12.3,17.8c0,0,19.9,14.1,39.6,26.8c1.8,1.1,3.6,1.9,5.5,1.9s3.7-0.8,5.5-1.9
  c22.1-14.5,39.6-26.9,39.6-26.9c6-4.4,10.4-10.6,12.3-17.8l16.3-62.4L177.4,67.9z"/>
        <path class="st0" d="M43.5,146.8L22.6,69.4l6.1-15.2L24.5,43l10.1-10.3c3.3-3,9.9-4,12.9-2.2l15.8,9.1l20.5,4.8l16-6.6l1.3,137.6
  c-0.2,19.8,1,17.7-13.5,8.3l-36-24.1C47.8,155.8,44.8,151.6,43.5,146.8z"/>
        <path class="st0" d="M144.8,161.7l-30.6,20.9c-8.5,4.7-12.6,9.2-13.3,7c-0.5-1.8-0.1-6.9-0.3-14.9l-0.4-134.6
  c0.1-1.3,1-3.6,2.5-3.3l15.6,4.7l22.5-3.5l14.9-10.9c1.6-1.2,3.9-1.1,5.3,0.3l13.3,12.7c1.2,1.3,1.3,3.7,0.5,5.3l-3.7,6.8l6.1,15.8
  l-21,78.2C153.1,155.9,148.5,158.5,144.8,161.7z"/>
        <path class="st1" d="M103.6,120.9c-0.7-0.3-1.5-0.5-1.8-0.5h-1h-1c-0.2,0-1,0.2-1.8,0.5l-7.9,3.3c-0.7,0.3-1.9,0.8-2.7,1.2
  l-11.8,6.2c-0.7,0.4-0.8,1-0.1,1.5l10.5,7.4c0.7,0.5,1.7,1.3,2.3,1.8l4.7,4c0.6,0.5,1.6,1.4,2.2,1.9l4.5,4c0.6,0.5,1.6,0.5,2.2,0
  l4.6-4c0.6-0.5,1.6-1.4,2.2-1.9l4.7-4c0.6-0.5,1.6-1.3,2.3-1.8l10.5-7.4c0.7-0.5,0.6-1.1-0.1-1.5l-11.8-6c-0.7-0.4-1.9-0.9-2.7-1.2
  L103.6,120.9z"/>
        <path class="st1" d="M160.3,70.6c0.2-0.8,0.2-1.1,0.2-1.1c0-0.8-0.1-2.1-0.2-2.9l-0.6-1.8c-0.4-0.7-1-1.9-1.5-2.5l-6.8-10.1
  c-0.4-0.7-1.2-1.7-1.8-2.4l-8.8-11.1c-0.5-0.6-1-1.1-1-1.1h-0.1c0,0-0.7,0.1-1.5,0.2l-13.5,2.7c-0.8,0.2-2.1,0.4-2.8,0.5l-0.2,0.1
  c-0.8,0.1-2.1,0.1-2.8-0.2l-11.3-3.6c-0.8-0.2-2.1-0.6-2.8-0.8c0,0-2.3-0.5-4.2-0.5c-1.9,0-4.2,0.5-4.2,0.5
  c-0.8,0.2-2.1,0.5-2.8,0.8l-11.3,3.6c-0.8,0.2-2.1,0.3-2.8,0.2l-0.2-0.1c-0.8-0.1-2.1-0.4-2.8-0.5l-13.6-2.5
  c-0.8-0.2-1.5-0.2-1.5-0.2h-0.1c-0.1,0-0.5,0.5-1,1.1L51.5,50c-0.5,0.6-1.3,1.7-1.8,2.4l-6.8,10.1c-0.4,0.7-1.1,1.8-1.5,2.5
  l-0.6,1.8c-0.1,0.8-0.2,2.1-0.2,2.9c0,0,0,0.2,0.2,1.1c0.4,1.5,1.5,2.8,1.5,2.8c0.5,0.6,1.4,1.6,1.9,2.2l20,21.3
  c0.5,0.6,0.7,1.7,0.4,2.4l-4.2,9.9c-0.3,0.7-0.4,1.9-0.1,2.7l1.1,3.1c1,2.6,2.6,4.9,4.8,6.6l4,3.3c0.6,0.5,1.7,0.7,2.4,0.3
  l12.8-6.1c0.7-0.4,1.8-1.1,2.4-1.6l9.2-8.3c1.3-1.2,1.4-3.3,0.2-4.6l-19.3-13c-0.7-0.4-0.9-1.4-0.5-2.1l8.5-16
  c0.4-0.7,0.4-1.9,0.1-2.6l-1-2.4c-0.3-0.7-1.2-1.6-1.9-1.9l-24.8-9.3c-0.7-0.3-0.7-0.6,0.1-0.7l16-1.5c0.8-0.1,2.1,0.1,2.8,0.2
  l14.3,4c0.8,0.2,1.3,1,1.1,1.8l-5,27.1c-0.1,0.8-0.1,1.9,0.1,2.5c0.2,0.6,1,1.1,1.8,1.3l9.9,2.1c0.8,0.2,2.1,0.2,2.8,0l9.2-2.1
  c0.8-0.2,1.6-0.8,1.8-1.3c0.2-0.5,0.2-1.7,0.1-2.5l-4.9-27.1c-0.1-0.8,0.4-1.6,1.1-1.8l14.3-4c0.8-0.2,2.1-0.3,2.8-0.2l16,1.5
  c0.8,0.1,0.8,0.4,0.1,0.7L118,66.9c-0.7,0.3-1.6,1.1-1.9,1.9l-1,2.4c-0.3,0.7-0.3,1.9,0.1,2.6l8.5,16c0.4,0.7,0.1,1.6-0.5,2.1
  l-19.3,13.1c-1.3,1.3-1.1,3.4,0.2,4.6l9.2,8.3c0.6,0.5,1.7,1.3,2.4,1.6l12.9,6.1c0.7,0.4,1.8,0.2,2.4-0.3l4-3.3
  c2.2-1.8,3.8-4,4.7-6.6l1.1-3.1c0.3-0.7,0.2-2-0.1-2.7l-4.2-9.9c-0.3-0.7-0.1-1.8,0.4-2.4l20-21.3c0.5-0.6,1.4-1.6,1.9-2.2
  C158.9,73.4,160,72.1,160.3,70.6z"/>
    </g>
</svg>