<?xml version="1.0" encoding="utf-8"?>
<!-- Generator: Adobe Illustrator 27.0.0, SVG Export Plug-In . SVG Version: 6.00 Build 0)  -->
<svg version="1.1" id="Layer_1"
    xmlns="http://www.w3.org/2000/svg"
    xmlns:xlink="http://www.w3.org/1999/xlink" x="0px" y="0px" viewBox="0 0 200 200" style="enable-background:new 0 0 200 200;" xml:space="preserve">
    <style type="text/css">
 .st0{fill:#0052FF;}
 .st1{fill:#FFFFFF;}
    </style>
    <path class="st0" d="M98.4,16.2L98.4,16.2c49.1,0,89,39.8,89,89l0,0c0,49.1-39.8,89-89,89l0,0c-49.1,0-89-39.8-89-89l0,0
 C9.4,56,49.3,16.2,98.4,16.2z"/>
    <path class="st1" d="M98.6,136.4c-17.3,0-31.3-14-31.3-31.3s14-31.3,31.3-31.3c15.5,0,28.3,11.3,30.8,26.1h31.5
 c-2.7-32.1-29.5-57.4-62.3-57.4c-34.5,0-62.6,28-62.6,62.6s28,62.6,62.6,62.6c32.8,0,59.7-25.2,62.3-57.4h-31.5
 C126.8,125.1,114,136.4,98.6,136.4z"/>
</svg>