<?xml version="1.0" encoding="utf-8"?>
<!-- Generator: Adobe Illustrator 27.0.0, SVG Export Plug-In . SVG Version: 6.00 Build 0)  -->
<svg version="1.1" id="Layer_1"
    xmlns="http://www.w3.org/2000/svg"
    xmlns:xlink="http://www.w3.org/1999/xlink" x="0px" y="0px" viewBox="0 0 200 200" style="enable-background:new 0 0 200 200;" xml:space="preserve">
    <style type="text/css">
 .st0{fill:#333745;}
    </style>
    <path class="st0" d="M157.1,16.2H80v103.5h103.5V43.1C183.6,28.6,171.7,16.2,157.1,16.2z M56.3,16.2H43.4c-14.5,0-27,11.8-27,27
 v12.9h39.9V16.2z M16.4,80.3h39.9v39.9H16.4V80.3z M143.7,183.8h12.9c14.5,0,27-11.8,27-27v-12.9h-39.9L143.7,183.8L143.7,183.8z
  M80,143.9h39.9v39.9H80V143.9z M16.4,143.9v12.9c0,14.5,11.8,27,27,27h12.9v-39.9H16.4z"/>
</svg>