<?xml version="1.0" encoding="utf-8"?>
<!-- Generator: Adobe Illustrator 27.0.0, SVG Export Plug-In . SVG Version: 6.00 Build 0)  -->
<svg version="1.1" id="Layer_1"
    xmlns="http://www.w3.org/2000/svg"
    xmlns:xlink="http://www.w3.org/1999/xlink" x="0px" y="0px" viewBox="0 0 200 200" style="enable-background:new 0 0 200 200;" xml:space="preserve">
    <style type="text/css">
 .st0{fill:#E17726;stroke:#E17726;stroke-width:0.25;stroke-linecap:round;stroke-linejoin:round;}
 .st1{fill:#E27625;stroke:#E27625;stroke-width:0.25;stroke-linecap:round;stroke-linejoin:round;}
 .st2{fill:#D5BFB2;stroke:#D5BFB2;stroke-width:0.25;stroke-linecap:round;stroke-linejoin:round;}
 .st3{fill:#233447;stroke:#233447;stroke-width:0.25;stroke-linecap:round;stroke-linejoin:round;}
 .st4{fill:#CC6228;stroke:#CC6228;stroke-width:0.25;stroke-linecap:round;stroke-linejoin:round;}
 .st5{fill:#E27525;stroke:#E27525;stroke-width:0.25;stroke-linecap:round;stroke-linejoin:round;}
 .st6{fill:#F5841F;stroke:#F5841F;stroke-width:0.25;stroke-linecap:round;stroke-linejoin:round;}
 .st7{fill:#C0AC9D;stroke:#C0AC9D;stroke-width:0.25;stroke-linecap:round;stroke-linejoin:round;}
 .st8{fill:#161616;stroke:#161616;stroke-width:0.25;stroke-linecap:round;stroke-linejoin:round;}
 .st9{fill:#763E1A;stroke:#763E1A;stroke-width:0.25;stroke-linecap:round;stroke-linejoin:round;}
    </style>
    <g>
        <path class="st0" d="M181.7,16.2l-70.8,52.4L124,37.7L181.7,16.2z"/>
        <path class="st1" d="M18.3,16.2l70.2,52.9L76,37.7L18.3,16.2z"/>
        <path class="st1" d="M156.2,137.7l-18.8,28.8l40.3,11.1l11.6-39.3L156.2,137.7z"/>
        <path class="st1" d="M10.8,138.3l11.5,39.3l40.3-11.1l-18.8-28.8L10.8,138.3z"/>
        <path class="st1" d="M60.4,89l-11.2,16.9l39.9,1.8l-1.3-43L60.4,89z"/>
        <path class="st1" d="M139.6,89l-27.8-24.7l-0.9,43.5l39.9-1.8L139.6,89z"/>
        <path class="st1" d="M62.6,166.4l24.2-11.7L66,138.6L62.6,166.4z"/>
        <path class="st1" d="M113.2,154.8l24.1,11.7l-3.3-27.9L113.2,154.8z"/>
        <path class="st2" d="M137.3,166.4l-24.1-11.7l2,15.6l-0.2,6.6L137.3,166.4z"/>
        <path class="st2" d="M62.6,166.4L85,177.1l-0.1-6.6l1.9-15.6L62.6,166.4z"/>
        <path class="st3" d="M85.4,128.2l-20-5.9l14.1-6.5L85.4,128.2z"/>
        <path class="st3" d="M114.6,128.2l5.9-12.4l14.2,6.5L114.6,128.2z"/>
        <path class="st4" d="M62.6,166.4l3.5-28.8l-22.3,0.6L62.6,166.4z"/>
        <path class="st4" d="M133.9,137.7l3.4,28.8l18.8-28.2L133.9,137.7z"/>
        <path class="st4" d="M150.8,105.9l-39.9,1.8l3.7,20.5l5.9-12.4l14.2,6.5L150.8,105.9z"/>
        <path class="st4" d="M65.4,122.4l14.1-6.5l5.9,12.4l3.7-20.5l-39.9-1.8L65.4,122.4z"/>
        <path class="st5" d="M49.2,105.9L66,138.6l-0.6-16.2L49.2,105.9z"/>
        <path class="st5" d="M134.7,122.4l-0.6,16.2l16.7-32.6L134.7,122.4z"/>
        <path class="st5" d="M89.1,107.8l-3.7,20.5l4.7,24.2l1.1-31.9L89.1,107.8z"/>
        <path class="st5" d="M110.9,107.8l-2,12.7l1,31.9l4.7-24.2L110.9,107.8z"/>
        <path class="st6" d="M114.6,128.2l-4.7,24.2l3.4,2.4l20.8-16.2l0.6-16.2L114.6,128.2z"/>
        <path class="st6" d="M65.4,122.4l0.6,16.2l20.8,16.2l3.4-2.4l-4.7-24.2L65.4,122.4z"/>
        <path class="st7" d="M115,177.1l0.2-6.6l-1.8-1.5H86.6l-1.8,1.5l0.1,6.6l-22.4-10.6l7.8,6.4l15.9,11h27.2l16-11l7.8-6.4L115,177.1z
  "/>
        <path class="st8" d="M113.2,154.8l-3.4-2.4H90.1l-3.4,2.4l-1.9,15.6l1.8-1.5h26.8l1.8,1.5L113.2,154.8z"/>
        <path class="st9" d="M184.7,72l6-28.9l-9-26.9l-68.4,50.6L139.6,89l37.2,10.8l8.2-9.6l-3.6-2.6l5.7-5.2l-4.3-3.4l5.7-4.3L184.7,72z
  "/>
        <path class="st9" d="M9.4,43.1l6,28.9l-3.9,2.9l5.7,4.3l-4.3,3.4l5.7,5.2L15,90.3l8.2,9.6L60.4,89l26.3-22.2L18.3,16.2L9.4,43.1z" />
        <path class="st6" d="M176.8,99.9L139.6,89l11.2,16.9L134,138.6l22.1-0.3h33.1L176.8,99.9z"/>
        <path class="st6" d="M60.4,89L23.2,99.9l-12.4,38.4h33l22.1,0.3l-16.7-32.6L60.4,89z"/>
        <path class="st6" d="M110.9,107.8l2.4-40.9L124,37.7H76l10.8,29.1l2.4,40.9l0.9,12.9l0.1,31.8h19.8l0.1-31.8L110.9,107.8z"/>
    </g>
</svg>