<?xml version="1.0" encoding="utf-8"?>
<!-- Generator: Adobe Illustrator 27.0.0, SVG Export Plug-In . SVG Version: 6.00 Build 0)  -->
<svg version="1.1" id="Layer_1"
    xmlns="http://www.w3.org/2000/svg"
    xmlns:xlink="http://www.w3.org/1999/xlink" x="0px" y="0px" viewBox="0 0 200 200" style="enable-background:new 0 0 200 200;" xml:space="preserve">
    <style type="text/css">
 .st0{fill:url(#SVGID_1_);}
 .st1{fill:url(#SVGID_00000118366835400152725650000009533394158325674172_);}
    </style>
    <g>

        <linearGradient id="SVGID_1_" gradientUnits="userSpaceOnUse" x1="-173.4747" y1="479.5182" x2="-173.4747" y2="478.8445" gradientTransform="matrix(213.3 0 0 -256 37087.3125 122770.5859)">
            <stop offset="0.3" style="stop-color:#FF1B2D"/>
            <stop offset="0.4381" style="stop-color:#FA1A2C"/>
            <stop offset="0.5939" style="stop-color:#ED1528"/>
            <stop offset="0.7581" style="stop-color:#D60E21"/>
            <stop offset="0.9272" style="stop-color:#B70519"/>
            <stop offset="1" style="stop-color:#A70014"/>
        </linearGradient>
        <path class="st0" d="M70.7,150.1c-9.9-11.6-16.2-28.8-16.6-48v-4.2c0.4-19.3,6.8-36.4,16.6-48c12.8-16.5,31.6-24,52.8-24
  c13.1,0,25.4,0.9,35.8,7.9C143.6,19.7,123,11.1,100.3,11H100c-49.1,0-89,39.8-89,89c0,47.7,37.5,86.7,84.7,88.9
  c1.4,0.1,2.8,0.1,4.2,0.1c22.8,0,43.6-8.5,59.3-22.7c-10.4,7-22,7.2-35.1,7.2C103.1,173.6,83.5,166.7,70.7,150.1L70.7,150.1z"/>

        <linearGradient id="SVGID_00000169544204259513932150000004090815132631048601_" gradientUnits="userSpaceOnUse" x1="-173.4075" y1="479.3272" x2="-173.4075" y2="478.6414" gradientTransform="matrix(170.1 0 0 -222.4 29626.4785 106626.4766)">
            <stop offset="0" style="stop-color:#9C0000"/>
            <stop offset="0.7" style="stop-color:#FF4B4B"/>
        </linearGradient>
        <path style="fill:url(#SVGID_00000169544204259513932150000004090815132631048601_);" d="M70.7,49.9c8.1-9.7,18.7-15.4,30.2-15.4
  c25.9,0,46.9,29.3,46.9,65.6s-21,65.6-46.9,65.6c-11.5,0-22-5.8-30.2-15.4c12.8,16.5,31.8,27.1,52.9,27.1c13,0,25.2-4,35.7-10.9
  C177.5,150,189,126.3,189,100s-11.5-50-29.7-66.3c-10.4-7-22.6-10.9-35.7-10.9C102.4,22.8,83.5,33.3,70.7,49.9L70.7,49.9z"/>
    </g>
</svg>