<?xml version="1.0" encoding="utf-8"?>
<!-- Generator: Adobe Illustrator 27.0.0, SVG Export Plug-In . SVG Version: 6.00 Build 0)  -->
<svg version="1.1" id="Layer_1"
    xmlns="http://www.w3.org/2000/svg"
    xmlns:xlink="http://www.w3.org/1999/xlink" x="0px" y="0px" viewBox="0 0 200 200" style="enable-background:new 0 0 200 200;" xml:space="preserve">
    <style type="text/css">
 .st0{fill-rule:evenodd;clip-rule:evenodd;fill:url(#SVGID_1_);}
 .st1{fill:#FFFFFF;}
    </style>
    <g>

        <radialGradient id="SVGID_1_" cx="-161.3607" cy="-128.1369" r="0.3577" gradientTransform="matrix(512 0 0 512 82625.0938 65706.1094)" gradientUnits="userSpaceOnUse">
            <stop offset="0" style="stop-color:#5D9DF6"/>
            <stop offset="1" style="stop-color:#006FFF"/>
        </radialGradient>
        <path class="st0" d="M100,8.4c50.6,0,91.6,41,91.6,91.6s-41,91.6-91.6,91.6S8.4,150.6,8.4,100S49.4,8.4,100,8.4z"/>
        <path class="st1" d="M66.6,79.1c18.4-18,48.3-18,66.7,0l2.2,2.2c0.9,0.9,0.9,2.4,0,3.3L128,92c-0.5,0.5-1.2,0.5-1.7,0l-3-3
  c-12.9-12.6-33.7-12.6-46.6,0l-3.3,3.2c-0.5,0.5-1.2,0.5-1.7,0l-7.6-7.4c-0.9-0.9-0.9-2.4,0-3.3L66.6,79.1z M149.1,94.5l6.8,6.6
  c0.9,0.9,0.9,2.4,0,3.3L125.4,134c-0.9,0.9-2.4,0.9-3.3,0l0,0l-21.6-21.1c-0.2-0.2-0.6-0.2-0.8,0l0,0L78,134
  c-0.9,0.9-2.4,0.9-3.3,0l0,0l-30.5-29.7c-0.9-0.9-0.9-2.4,0-3.3l6.8-6.6c0.9-0.9,2.4-0.9,3.3,0l21.6,21.1c0.2,0.2,0.6,0.2,0.8,0
  l0,0l21.6-21.1c0.9-0.9,2.4-0.9,3.3,0l0,0l21.6,21.1c0.2,0.2,0.6,0.2,0.8,0l21.6-21.1C146.6,93.6,148.1,93.6,149.1,94.5L149.1,94.5
  z"/>
    </g>
</svg>